{
    "asset" : {
        "generator" : "Khronos glTF Blender I/O v0.9.36",
        "version" : "2.0"
    },
    "scene" : 0,
    "scenes" : [
        {
            "name" : "Scene",
            "nodes" : [
                0,
                1,
                2,
                3,
                4,
                5,
                6,
                7,
                8,
                9
            ]
        }
    ],
    "nodes" : [
        {
            "mesh" : 0,
            "name" : "Plane",
            "scale" : [
                3,
                3,
                3
            ]
        },
        {
            "mesh" : 1,
            "name" : "Suzanne",
            "scale" : [
                0.5,
                0.5,
                0.5
            ],
            "translation" : [
                0,
                3,
                1
            ]
        },
        {
            "mesh" : 2,
            "name" : "Cube",
            "scale" : [
                0.5,
                0.5,
                0.5
            ],
            "translation" : [
                -2.5,
                2.5,
                0.5
            ]
        },
        {
            "mesh" : 3,
            "name" : "Sphere",
            "scale" : [
                0.5,
                0.5,
                0.5
            ],
            "translation" : [
                -3,
                0,
                1.5
            ]
        },
        {
            "mesh" : 4,
            "name" : "Cube.001",
            "scale" : [
                0.19999998807907104,
                0.19999998807907104,
                0.19999998807907104
            ],
            "translation" : [
                2,
                2,
                1
            ]
        },
        {
            "mesh" : 5,
            "name" : "Text.001",
            "rotation" : [
                -0.5,
                0.5,
                0.5,
                -0.5
            ],
            "scale" : [
                10,
                10,
                10
            ],
            "translation" : [
                105,
                10,
                0
            ]
        },
        {
            "mesh" : 6,
            "name" : "Text.002",
            "rotation" : [
                -0.5,
                0.5,
                0.5,
                -0.5
            ],
            "scale" : [
                1.5,
                1.5,
                1.5
            ],
            "translation" : [
                10,
                1,
                0
            ]
        },
        {
            "mesh" : 7,
            "name" : "Text.003",
            "rotation" : [
                -0.5,
                0.5,
                0.5,
                -0.5
            ],
            "translation" : [
                5,
                0.5,
                0
            ]
        },
        {
            "mesh" : 8,
            "name" : "Text.004",
            "rotation" : [
                -0.5,
                0.5,
                0.5,
                -0.5
            ],
            "scale" : [
                0.25,
                0.25,
                0.25
            ],
            "translation" : [
                1,
                0.10000000149011612,
                0
            ]
        },
        {
            "mesh" : 9,
            "name" : "Text.005",
            "rotation" : [
                -0.5,
                0.5,
                0.5,
                -0.5
            ],
            "scale" : [
                0.5,
                0.5,
                0.5
            ],
            "translation" : [
                2,
                0.30000001192092896,
                0
            ]
        }
    ],
    "materials" : [
        {
            "doubleSided" : true,
            "name" : "Material.006",
            "pbrMetallicRoughness" : {
                "baseColorFactor" : [
                    0.800000011920929,
                    0.800000011920929,
                    0.800000011920929,
                    1
                ],
                "metallicFactor" : 0,
                "roughnessFactor" : 0.5
            }
        },
        {
            "doubleSided" : true,
            "name" : "Material.005",
            "pbrMetallicRoughness" : {
                "baseColorFactor" : [
                    0.800000011920929,
                    0.800000011920929,
                    0.800000011920929,
                    1
                ],
                "metallicFactor" : 0,
                "roughnessFactor" : 0.5
            }
        },
        {
            "doubleSided" : true,
            "name" : "Material.004",
            "pbrMetallicRoughness" : {
                "baseColorFactor" : [
                    0.800000011920929,
                    0.800000011920929,
                    0.800000011920929,
                    1
                ],
                "metallicFactor" : 0,
                "roughnessFactor" : 0.5
            }
        },
        {
            "doubleSided" : true,
            "name" : "Material.003",
            "pbrMetallicRoughness" : {
                "baseColorFactor" : [
                    0.800000011920929,
                    0.800000011920929,
                    0.800000011920929,
                    1
                ],
                "metallicFactor" : 1,
                "roughnessFactor" : 0.30000001192092896
            }
        },
        {
            "doubleSided" : true,
            "name" : "Material.001",
            "pbrMetallicRoughness" : {
                "baseColorFactor" : [
                    0.800000011920929,
                    0.800000011920929,
                    0.800000011920929,
                    1
                ],
                "metallicFactor" : 0,
                "roughnessFactor" : 0.5
            }
        },
        {
            "doubleSided" : true,
            "emissiveFactor" : [
                1,
                1,
                1
            ],
            "name" : "Material.002",
            "pbrMetallicRoughness" : {}
        }
    ],
    "meshes" : [
        {
            "name" : "Plane",
            "primitives" : [
                {
                    "attributes" : {
                        "POSITION" : 0,
                        "NORMAL" : 1,
                        "TEXCOORD_0" : 2
                    },
                    "indices" : 3,
                    "material" : 0
                }
            ]
        },
        {
            "name" : "Suzanne",
            "primitives" : [
                {
                    "attributes" : {
                        "POSITION" : 4,
                        "NORMAL" : 5,
                        "TEXCOORD_0" : 6
                    },
                    "indices" : 7,
                    "material" : 1
                }
            ]
        },
        {
            "name" : "Cube.002",
            "primitives" : [
                {
                    "attributes" : {
                        "POSITION" : 8,
                        "NORMAL" : 9,
                        "TEXCOORD_0" : 10
                    },
                    "indices" : 11,
                    "material" : 2
                }
            ]
        },
        {
            "name" : "Sphere",
            "primitives" : [
                {
                    "attributes" : {
                        "POSITION" : 12,
                        "NORMAL" : 13,
                        "TEXCOORD_0" : 14
                    },
                    "indices" : 15,
                    "material" : 3
                }
            ]
        },
        {
            "name" : "Cube.003",
            "primitives" : [
                {
                    "attributes" : {
                        "POSITION" : 16,
                        "NORMAL" : 17,
                        "TEXCOORD_0" : 18
                    },
                    "indices" : 19,
                    "material" : 4
                },
                {
                    "attributes" : {
                        "POSITION" : 20,
                        "NORMAL" : 21,
                        "TEXCOORD_0" : 22
                    },
                    "indices" : 23,
                    "material" : 5
                }
            ]
        },
        {
            "name" : "Text.001",
            "primitives" : [
                {
                    "attributes" : {
                        "POSITION" : 24,
                        "NORMAL" : 25
                    },
                    "indices" : 26
                }
            ]
        },
        {
            "name" : "Text.002",
            "primitives" : [
                {
                    "attributes" : {
                        "POSITION" : 27,
                        "NORMAL" : 28
                    },
                    "indices" : 29
                }
            ]
        },
        {
            "name" : "Text.003",
            "primitives" : [
                {
                    "attributes" : {
                        "POSITION" : 30,
                        "NORMAL" : 31
                    },
                    "indices" : 32
                }
            ]
        },
        {
            "name" : "Text.004",
            "primitives" : [
                {
                    "attributes" : {
                        "POSITION" : 33,
                        "NORMAL" : 34
                    },
                    "indices" : 35
                }
            ]
        },
        {
            "name" : "Text",
            "primitives" : [
                {
                    "attributes" : {
                        "POSITION" : 36,
                        "NORMAL" : 37
                    },
                    "indices" : 38
                }
            ]
        }
    ],
    "accessors" : [
        {
            "bufferView" : 0,
            "componentType" : 5126,
            "count" : 4,
            "max" : [
                35.000003814697266,
                1,
                0
            ],
            "min" : [
                -1,
                -1,
                0
            ],
            "type" : "VEC3"
        },
        {
            "bufferView" : 1,
            "componentType" : 5126,
            "count" : 4,
            "type" : "VEC3"
        },
        {
            "bufferView" : 2,
            "componentType" : 5126,
            "count" : 4,
            "type" : "VEC2"
        },
        {
            "bufferView" : 3,
            "componentType" : 5123,
            "count" : 6,
            "type" : "SCALAR"
        },
        {
            "bufferView" : 4,
            "componentType" : 5126,
            "count" : 1968,
            "max" : [
                1.3671875,
                0.8515625,
                0.984375
            ],
            "min" : [
                -1.3671875,
                -0.8515625,
                -0.984375
            ],
            "type" : "VEC3"
        },
        {
            "bufferView" : 5,
            "componentType" : 5126,
            "count" : 1968,
            "type" : "VEC3"
        },
        {
            "bufferView" : 6,
            "componentType" : 5126,
            "count" : 1968,
            "type" : "VEC2"
        },
        {
            "bufferView" : 7,
            "componentType" : 5123,
            "count" : 2904,
            "type" : "SCALAR"
        },
        {
            "bufferView" : 8,
            "componentType" : 5126,
            "count" : 304,
            "max" : [
                1.2242863178253174,
                1.1511338949203491,
                3.130690097808838
            ],
            "min" : [
                -1.3985192775726318,
                -1.4082376956939697,
                -1
            ],
            "type" : "VEC3"
        },
        {
            "bufferView" : 9,
            "componentType" : 5126,
            "count" : 304,
            "type" : "VEC3"
        },
        {
            "bufferView" : 10,
            "componentType" : 5126,
            "count" : 304,
            "type" : "VEC2"
        },
        {
            "bufferView" : 11,
            "componentType" : 5123,
            "count" : 504,
            "type" : "SCALAR"
        },
        {
            "bufferView" : 12,
            "componentType" : 5126,
            "count" : 1984,
            "max" : [
                0.9980136156082153,
                1.0088114738464355,
                1.0429341793060303
            ],
            "min" : [
                -1.0459924936294556,
                -1.0362684726715088,
                -1.1384304761886597
            ],
            "type" : "VEC3"
        },
        {
            "bufferView" : 13,
            "componentType" : 5126,
            "count" : 1984,
            "type" : "VEC3"
        },
        {
            "bufferView" : 14,
            "componentType" : 5126,
            "count" : 1984,
            "type" : "VEC2"
        },
        {
            "bufferView" : 15,
            "componentType" : 5123,
            "count" : 2880,
            "type" : "SCALAR"
        },
        {
            "bufferView" : 16,
            "componentType" : 5126,
            "count" : 200,
            "max" : [
                2.319520950317383,
                2.319520950317383,
                1
            ],
            "min" : [
                -2.319520950317383,
                -2.319520950317383,
                -1
            ],
            "type" : "VEC3"
        },
        {
            "bufferView" : 17,
            "componentType" : 5126,
            "count" : 200,
            "type" : "VEC3"
        },
        {
            "bufferView" : 18,
            "componentType" : 5126,
            "count" : 200,
            "type" : "VEC2"
        },
        {
            "bufferView" : 19,
            "componentType" : 5123,
            "count" : 300,
            "type" : "SCALAR"
        },
        {
            "bufferView" : 20,
            "componentType" : 5126,
            "count" : 16,
            "max" : [
                0.9716732501983643,
                0.9716732501983643,
                0.25391221046447754
            ],
            "min" : [
                -0.9716732501983643,
                -0.9716732501983643,
                -0.25391221046447754
            ],
            "type" : "VEC3"
        },
        {
            "bufferView" : 21,
            "componentType" : 5126,
            "count" : 16,
            "type" : "VEC3"
        },
        {
            "bufferView" : 22,
            "componentType" : 5126,
            "count" : 16,
            "type" : "VEC2"
        },
        {
            "bufferView" : 23,
            "componentType" : 5123,
            "count" : 24,
            "type" : "SCALAR"
        },
        {
            "bufferView" : 24,
            "componentType" : 5126,
            "count" : 2071,
            "max" : [
                2.2119998931884766,
                0.6910000443458557,
                0.10000000149011612
            ],
            "min" : [
                0.20200000703334808,
                -0.009000000543892384,
                0
            ],
            "type" : "VEC3"
        },
        {
            "bufferView" : 25,
            "componentType" : 5126,
            "count" : 2071,
            "type" : "VEC3"
        },
        {
            "bufferView" : 26,
            "componentType" : 5123,
            "count" : 3612,
            "type" : "SCALAR"
        },
        {
            "bufferView" : 27,
            "componentType" : 5126,
            "count" : 1415,
            "max" : [
                1.7120000123977661,
                0.6910000443458557,
                0.13333334028720856
            ],
            "min" : [
                0.20200000703334808,
                -0.009000000543892384,
                0
            ],
            "type" : "VEC3"
        },
        {
            "bufferView" : 28,
            "componentType" : 5126,
            "count" : 1415,
            "type" : "VEC3"
        },
        {
            "bufferView" : 29,
            "componentType" : 5123,
            "count" : 2460,
            "type" : "SCALAR"
        },
        {
            "bufferView" : 30,
            "componentType" : 5126,
            "count" : 1219,
            "max" : [
                1.2120000123977661,
                0.6820000410079956,
                0.10000000149011612
            ],
            "min" : [
                0.05000000074505806,
                -0.009000000543892384,
                0
            ],
            "type" : "VEC3"
        },
        {
            "bufferView" : 31,
            "componentType" : 5126,
            "count" : 1219,
            "type" : "VEC3"
        },
        {
            "bufferView" : 32,
            "componentType" : 5123,
            "count" : 2196,
            "type" : "SCALAR"
        },
        {
            "bufferView" : 33,
            "componentType" : 5126,
            "count" : 734,
            "max" : [
                1.2120000123977661,
                0.6820000410079956,
                0.4000000059604645
            ],
            "min" : [
                0.20200000703334808,
                0,
                0
            ],
            "type" : "VEC3"
        },
        {
            "bufferView" : 34,
            "componentType" : 5126,
            "count" : 734,
            "type" : "VEC3"
        },
        {
            "bufferView" : 35,
            "componentType" : 5123,
            "count" : 1308,
            "type" : "SCALAR"
        },
        {
            "bufferView" : 36,
            "componentType" : 5126,
            "count" : 1301,
            "max" : [
                1.2120000123977661,
                0.6910000443458557,
                0.20000000298023224
            ],
            "min" : [
                0.03400000184774399,
                0,
                0
            ],
            "type" : "VEC3"
        },
        {
            "bufferView" : 37,
            "componentType" : 5126,
            "count" : 1301,
            "type" : "VEC3"
        },
        {
            "bufferView" : 38,
            "componentType" : 5123,
            "count" : 2328,
            "type" : "SCALAR"
        }
    ],
    "bufferViews" : [
        {
            "buffer" : 0,
            "byteLength" : 48,
            "byteOffset" : 0
        },
        {
            "buffer" : 0,
            "byteLength" : 48,
            "byteOffset" : 48
        },
        {
            "buffer" : 0,
            "byteLength" : 32,
            "byteOffset" : 96
        },
        {
            "buffer" : 0,
            "byteLength" : 12,
            "byteOffset" : 128
        },
        {
            "buffer" : 0,
            "byteLength" : 23616,
            "byteOffset" : 140
        },
        {
            "buffer" : 0,
            "byteLength" : 23616,
            "byteOffset" : 23756
        },
        {
            "buffer" : 0,
            "byteLength" : 15744,
            "byteOffset" : 47372
        },
        {
            "buffer" : 0,
            "byteLength" : 5808,
            "byteOffset" : 63116
        },
        {
            "buffer" : 0,
            "byteLength" : 3648,
            "byteOffset" : 68924
        },
        {
            "buffer" : 0,
            "byteLength" : 3648,
            "byteOffset" : 72572
        },
        {
            "buffer" : 0,
            "byteLength" : 2432,
            "byteOffset" : 76220
        },
        {
            "buffer" : 0,
            "byteLength" : 1008,
            "byteOffset" : 78652
        },
        {
            "buffer" : 0,
            "byteLength" : 23808,
            "byteOffset" : 79660
        },
        {
            "buffer" : 0,
            "byteLength" : 23808,
            "byteOffset" : 103468
        },
        {
            "buffer" : 0,
            "byteLength" : 15872,
            "byteOffset" : 127276
        },
        {
            "buffer" : 0,
            "byteLength" : 5760,
            "byteOffset" : 143148
        },
        {
            "buffer" : 0,
            "byteLength" : 2400,
            "byteOffset" : 148908
        },
        {
            "buffer" : 0,
            "byteLength" : 2400,
            "byteOffset" : 151308
        },
        {
            "buffer" : 0,
            "byteLength" : 1600,
            "byteOffset" : 153708
        },
        {
            "buffer" : 0,
            "byteLength" : 600,
            "byteOffset" : 155308
        },
        {
            "buffer" : 0,
            "byteLength" : 192,
            "byteOffset" : 155908
        },
        {
            "buffer" : 0,
            "byteLength" : 192,
            "byteOffset" : 156100
        },
        {
            "buffer" : 0,
            "byteLength" : 128,
            "byteOffset" : 156292
        },
        {
            "buffer" : 0,
            "byteLength" : 48,
            "byteOffset" : 156420
        },
        {
            "buffer" : 0,
            "byteLength" : 24852,
            "byteOffset" : 156468
        },
        {
            "buffer" : 0,
            "byteLength" : 24852,
            "byteOffset" : 181320
        },
        {
            "buffer" : 0,
            "byteLength" : 7224,
            "byteOffset" : 206172
        },
        {
            "buffer" : 0,
            "byteLength" : 16980,
            "byteOffset" : 213396
        },
        {
            "buffer" : 0,
            "byteLength" : 16980,
            "byteOffset" : 230376
        },
        {
            "buffer" : 0,
            "byteLength" : 4920,
            "byteOffset" : 247356
        },
        {
            "buffer" : 0,
            "byteLength" : 14628,
            "byteOffset" : 252276
        },
        {
            "buffer" : 0,
            "byteLength" : 14628,
            "byteOffset" : 266904
        },
        {
            "buffer" : 0,
            "byteLength" : 4392,
            "byteOffset" : 281532
        },
        {
            "buffer" : 0,
            "byteLength" : 8808,
            "byteOffset" : 285924
        },
        {
            "buffer" : 0,
            "byteLength" : 8808,
            "byteOffset" : 294732
        },
        {
            "buffer" : 0,
            "byteLength" : 2616,
            "byteOffset" : 303540
        },
        {
            "buffer" : 0,
            "byteLength" : 15612,
            "byteOffset" : 306156
        },
        {
            "buffer" : 0,
            "byteLength" : 15612,
            "byteOffset" : 321768
        },
        {
            "buffer" : 0,
            "byteLength" : 4656,
            "byteOffset" : 337380
        }
    ],
    "buffers" : [
        {
            "byteLength" : 342036,
            "uri" : "data:application/octet-stream;base64,"
        }
    ]
}
